<svg width="41" height="41" viewBox="0 0 41 41" fill="none" xmlns="http://www.w3.org/2000/svg">
<path fill-rule="evenodd" clip-rule="evenodd" d="M20.8968 33.9761C22.9688 32.942 32.4587 27.7187 32.4587 18.7916C32.4587 12.1872 27.1047 6.83325 20.5003 6.83325C13.8959 6.83325 8.54199 12.1872 8.54199 18.7916C8.54199 27.7187 18.0319 32.942 20.1039 33.9761C20.3588 34.1033 20.6419 34.1033 20.8968 33.9761ZM20.5003 23.9166C23.3308 23.9166 25.6253 21.622 25.6253 18.7916C25.6253 15.9611 23.3308 13.6666 20.5003 13.6666C17.6699 13.6666 15.3753 15.9611 15.3753 18.7916C15.3753 21.622 17.6699 23.9166 20.5003 23.9166Z" fill="white"/>
<path d="M20.8968 33.9761L20.6288 33.4392L20.6288 33.4392L20.8968 33.9761ZM20.1039 33.9761L19.836 34.5129L19.836 34.5129L20.1039 33.9761ZM31.8587 18.7916C31.8587 23.0286 29.6079 26.4207 27.0371 28.9129C24.4682 31.4032 21.6388 32.9352 20.6288 33.4392L21.1647 34.5129C22.2267 33.9829 25.1783 32.3862 27.8723 29.7745C30.5645 27.1647 33.0587 23.4816 33.0587 18.7916H31.8587ZM20.5003 7.43325C26.7734 7.43325 31.8587 12.5186 31.8587 18.7916H33.0587C33.0587 11.8558 27.4361 6.23325 20.5003 6.23325V7.43325ZM9.14199 18.7916C9.14199 12.5186 14.2273 7.43325 20.5003 7.43325V6.23325C13.5645 6.23325 7.94199 11.8558 7.94199 18.7916H9.14199ZM20.3718 33.4392C19.3618 32.9352 16.5324 31.4032 13.9636 28.9129C11.3927 26.4207 9.14199 23.0286 9.14199 18.7916H7.94199C7.94199 23.4816 10.4362 27.1647 13.1283 29.7745C15.8224 32.3862 18.7739 33.9829 19.836 34.5129L20.3718 33.4392ZM20.6288 33.4392C20.5427 33.4822 20.458 33.4822 20.3718 33.4392L19.836 34.5129C20.2595 34.7243 20.7411 34.7243 21.1647 34.5129L20.6288 33.4392ZM25.0253 18.7916C25.0253 21.2907 22.9994 23.3166 20.5003 23.3166V24.5166C23.6622 24.5166 26.2253 21.9534 26.2253 18.7916H25.0253ZM20.5003 14.2666C22.9994 14.2666 25.0253 16.2925 25.0253 18.7916H26.2253C26.2253 15.6298 23.6622 13.0666 20.5003 13.0666V14.2666ZM15.9753 18.7916C15.9753 16.2925 18.0012 14.2666 20.5003 14.2666V13.0666C17.3385 13.0666 14.7753 15.6298 14.7753 18.7916H15.9753ZM20.5003 23.3166C18.0012 23.3166 15.9753 21.2907 15.9753 18.7916H14.7753C14.7753 21.9534 17.3385 24.5166 20.5003 24.5166V23.3166Z" fill="#222222"/>
</svg>
