<svg width="55" height="40" viewBox="0 0 55 40" fill="none" xmlns="http://www.w3.org/2000/svg">
<path fill-rule="evenodd" clip-rule="evenodd" d="M54.7168 1.32078C54.8963 1.17869 55 0.96892 55 0.747812C55 0.334807 54.6452 0 54.2076 0H1.23012C0.550743 0 0 0.519748 0 1.16089C0 1.50601 0.16271 1.83323 0.443985 2.05379L26.2704 22.3049C26.8333 22.7462 27.65 22.7444 28.2106 22.3007L54.7168 1.32078ZM2.48116 7.98499C1.49481 7.21156 0 7.87354 0 9.08377V38.5714C0 39.3604 0.677733 40 1.51376 40H53.4862C54.3223 40 55 39.3604 55 38.5714V8.50982C55 7.2965 53.4985 6.63557 52.5135 7.41526L28.3826 26.5151L28.2212 26.6428C27.6606 27.0866 26.8439 27.0883 26.2811 26.647L26.1191 26.52L2.48116 7.98499Z" fill="white"/>
</svg>
