<svg width="54" height="53" viewBox="0 0 54 53" fill="none" xmlns="http://www.w3.org/2000/svg">
<path d="M16.7898 19.2658C20.0111 28.3477 23.4322 31.9431 32.2152 35.7049L28.3044 41.1179C18.2246 36.408 13.2893 28.3097 11.0025 21.9693L16.7898 19.2658Z" fill="white"/>
<path d="M19.7912 6.62956C21.5863 6.5989 22.9289 8.0694 22.7816 9.7565C22.5497 12.4114 22.7263 14.3224 23.2431 16.6871C23.527 17.9861 22.8214 19.3185 21.7187 20.1853C20.2324 21.3535 19.0882 22.8322 18.1774 24.1042C16.915 25.8672 12.6615 25.7978 11.7487 23.9073C9.87266 20.0222 8.66885 12.8348 11.5653 7.92997C12.0203 7.15954 12.9194 6.74695 13.8451 6.73114L19.7912 6.62956Z" fill="white"/>
<path d="M46.6085 35.2087C46.8566 33.5294 45.4723 32.0937 43.6811 32.029C40.8624 31.9271 38.8749 31.5318 36.4513 30.7628C35.1199 30.3405 33.6345 30.8418 32.5908 31.7714C31.184 33.0244 29.492 33.9193 28.0454 34.6202C26.0404 35.5918 25.6018 39.588 27.4792 40.6712C31.3375 42.8973 38.748 44.8903 44.2522 42.7645C45.1168 42.4306 45.6587 41.6372 45.7866 40.7713L46.6085 35.2087Z" fill="white"/>
</svg>
